
<svg xmlns="http://www.w3.org/2000/svg" id="Group_5" data-name="Group 5" viewBox="0 0 96.088 76.721">
    <defs>
        <style>
            .cls-1{fill:#d80000}
        </style>
    </defs>
    <g id="Group_1" data-name="Group 1" transform="translate(18.187)">
        <path id="Path_198" d="M76.1 22.057c-12.067 6.033-31.731 6.033-43.8-.074a19.711 19.711 0 0 1-7.6-6.183c-1.266 4.395 1.713 8.938 8.194 12.216C44.59 33.9 63.733 33.9 75.5 28.09c6.555-3.277 9.609-7.747 8.268-12.216-1.488 2.31-4.168 4.395-7.668 6.183z" class="cls-1" data-name="Path 198" transform="translate(-24.416 -4.031)"/>
        <path id="Path_199" d="M60.926 5.661l5.065 2.533 5.661-2.83L60.926 0 50.2 5.363l5.661 2.83z" class="cls-1" data-name="Path 199" transform="translate(-30.995)"/>
    </g>
    <g id="Group_2" data-name="Group 2" transform="translate(0 37.094)">
        <path id="Path_200" d="M37.664 54.337l-.074-.074-3.724-1.788-5.066 2.532 8.864 4.393 8.936-4.393-5.137-2.607z" class="cls-1" data-name="Path 200" transform="translate(-7.348 -50.463)"/>
        <path id="Path_201" d="M110.2 55.033l8.864 4.395 5.14-2.533-8.939-4.395z" class="cls-1" data-name="Path 201" transform="translate(-28.116 -50.489)"/>
        <path id="Path_202" d="M8.938 81.366L0 65.5h7.672l4.916 9.46 4.767-9.46h7.523L10.056 93.433h-7.3z" class="cls-1" data-name="Path 202" transform="translate(0 -53.806)"/>
        <path id="Path_203" d="M43.029 65.5v18.473H36.4V65.5z" class="cls-1" data-name="Path 203" transform="translate(-9.287 -53.806)"/>
        <path id="Path_204" d="M51.3 65.347h6.629v2.309a7.005 7.005 0 0 1 5.885-2.756 7.314 7.314 0 0 1 5.438 2.011c1.564 1.564 1.713 3.128 1.713 5.14v11.694h-6.63v-9.311c0-1.043.074-2.682-.819-3.575a2.684 2.684 0 0 0-2.086-.819 3.652 3.652 0 0 0-2.458.894 4.071 4.071 0 0 0-1.043 2.9v9.907H51.3v-18.4z" class="cls-1" data-name="Path 204" transform="translate(-13.088 -53.652)"/>
        <path id="Path_205" d="M90.329 49.8v13.408a7.359 7.359 0 0 1 5.512-2.384 9.735 9.735 0 0 1 6.555 2.458 10 10 0 0 1 2.979 7.3 10.35 10.35 0 0 1-2.979 7.374 8.756 8.756 0 0 1-6.48 2.533 6.787 6.787 0 0 1-5.586-2.607v2.011H83.7V49.8zm6.927 23.91a4.084 4.084 0 0 0 1.266-2.9 4.443 4.443 0 0 0-1.266-3.128 3.917 3.917 0 0 0-2.9-1.192 3.822 3.822 0 0 0-2.979 1.266 4.722 4.722 0 0 0-1.266 2.979 4.242 4.242 0 0 0 1.415 3.128 4.592 4.592 0 0 0 2.831 1.117 4.418 4.418 0 0 0 2.9-1.27z" class="cls-1" data-name="Path 205" transform="translate(-21.355 -49.8)"/>
        <path id="Path_206" d="M124.329 65.5v18.473H117.7V65.5z" class="cls-1" data-name="Path 206" transform="translate(-30.029 -53.806)"/>
    </g>
</svg>
